<?xml version="1.0" standalone="no"?>
<!DOCTYPE svg PUBLIC "-//W3C//DTD SVG 20010904//EN"
 "http://www.w3.org/TR/2001/REC-SVG-20010904/DTD/svg10.dtd">
<svg version="1.0" xmlns="http://www.w3.org/2000/svg"
 width="1500.000000pt" height="592.000000pt" viewBox="0 0 1500.000000 592.000000"
 preserveAspectRatio="xMidYMid meet">

<g transform="translate(0.000000,592.000000) scale(0.100000,-0.100000)"
fill="#000000" stroke="none">
<path d="M30 3540 l0 -1530 1525 0 1525 0 0 1530 0 1530 -1525 0 -1525 0 0
-1530z m1385 670 c33 -5 86 -23 118 -40 l59 -29 39 19 c68 35 148 50 265 50
130 0 204 -19 280 -70 38 -25 52 -30 64 -21 143 103 383 122 535 43 41 -21
109 -87 138 -133 74 -121 59 -355 -42 -626 -130 -351 -302 -503 -571 -503
-127 0 -211 25 -283 84 l-52 42 -55 -36 c-163 -109 -353 -126 -511 -46 -60 29
-69 32 -90 20 -141 -79 -338 -89 -473 -25 l-60 29 -38 -19 c-134 -69 -345 -64
-453 9 -51 35 -101 102 -117 155 -41 141 27 417 184 748 125 263 225 349 405
349 89 0 149 -17 188 -54 l33 -32 49 28 c97 57 253 80 388 58z"/>
<path d="M678 4126 c-106 -29 -151 -81 -253 -291 -148 -307 -219 -570 -186
-693 16 -58 80 -126 139 -149 57 -22 182 -24 259 -4 29 7 72 26 96 42 l44 29
57 -34 c75 -45 141 -60 235 -53 93 6 161 29 222 72 l47 33 27 -28 c71 -74 240
-102 373 -61 75 22 176 84 216 132 27 32 36 36 36 15 0 -27 89 -113 142 -137
46 -21 68 -24 163 -23 90 0 121 4 168 23 73 29 130 72 187 143 118 147 232
475 233 674 1 81 -3 97 -30 156 -19 40 -44 75 -65 91 -146 112 -394 97 -539
-32 l-43 -38 -21 31 c-54 81 -171 121 -325 114 -103 -6 -183 -29 -244 -71
l-37 -25 -23 23 c-50 50 -105 69 -212 73 -165 7 -276 -28 -359 -113 l-45 -47
0 29 c0 40 -32 87 -71 105 -49 23 -136 30 -191 14z m743 -87 c54 -17 84 -51
84 -99 0 -85 -71 -132 -208 -138 l-88 -4 -24 -49 c-14 -27 -25 -52 -25 -57 0
-5 22 -7 49 -4 61 5 117 -12 138 -44 13 -21 14 -31 4 -64 -26 -89 -98 -128
-210 -117 -57 6 -59 6 -69 -21 -15 -39 -32 -94 -32 -102 0 -4 47 -5 104 -2
l105 5 30 -31 c20 -20 31 -40 31 -59 -1 -40 -33 -106 -64 -131 -75 -58 -251
-77 -332 -34 -50 26 -88 69 -104 118 -32 97 39 383 150 604 72 142 130 200
228 226 60 16 183 17 233 3z m628 -25 c44 -22 57 -35 73 -72 18 -39 19 -51 9
-101 -13 -63 -33 -96 -81 -128 -40 -28 -114 -31 -148 -7 -21 14 -23 23 -20 78
3 60 2 61 -24 64 -55 6 -85 -22 -137 -131 -95 -195 -143 -386 -107 -416 51
-43 140 17 170 114 5 17 0 23 -29 34 -41 14 -52 44 -36 94 22 67 76 97 172 97
69 0 110 -18 127 -55 44 -96 -46 -335 -162 -430 -175 -143 -434 -116 -484 52
-33 111 10 318 113 538 63 135 130 216 215 261 96 50 254 54 349 8z m565 26
c76 -12 132 -49 157 -103 71 -157 -63 -610 -230 -778 -62 -62 -117 -86 -217
-96 -70 -6 -155 14 -199 49 -87 68 -85 246 5 503 100 283 194 399 347 425 68
11 71 11 137 0z m-1794 -20 c25 -25 26 -76 4 -151 -18 -60 -119 -290 -189
-429 -25 -49 -45 -93 -45 -98 0 -5 26 -8 58 -8 97 1 138 -43 113 -124 -26 -87
-93 -131 -213 -138 -97 -6 -140 2 -178 34 -42 36 -54 88 -40 176 28 183 195
590 287 699 34 40 75 58 136 59 34 0 52 -5 67 -20z"/>
<path d="M2493 3840 c-34 -14 -99 -155 -163 -353 -42 -127 -46 -168 -22 -190
26 -23 66 -14 91 22 41 58 155 373 167 462 5 41 4 49 -14 58 -24 13 -29 13
-59 1z"/>
</g>
</svg>
